<svg xmlns="http://www.w3.org/2000/svg" xmlns:xlink="http://www.w3.org/1999/xlink" width="1500" zoomAndPan="magnify" viewBox="0 0 1125 749.999995" height="1000" preserveAspectRatio="xMidYMid meet" version="1.0"><defs><clipPath id="69dd6694c9"><path d="M 0 0 L 1125 0 L 1125 710.15625 L 0 710.15625 Z M 0 0 " clip-rule="nonzero"/></clipPath></defs><g clip-path="url(#69dd6694c9)"><path fill="#f4a222" d="M 1124.6875 147.9375 C 1124.6875 109.953125 1120.84375 71.921875 1113.265625 34.902344 C 1110.859375 23.160156 1108.070312 11.464844 1104.898438 -0.117188 L 20.078125 -0.117188 C 16.90625 11.464844 14.117188 23.160156 11.710938 34.902344 C 4.132812 71.941406 0.289062 109.976562 0.289062 147.9375 C 0.289062 185.925781 4.132812 223.957031 11.710938 260.976562 C 19.132812 297.1875 30.175781 332.8125 44.566406 366.859375 C 58.6875 400.238281 76.140625 432.398438 96.445312 462.46875 C 116.527344 492.179688 139.578125 520.113281 164.941406 545.503906 C 190.308594 570.871094 218.261719 593.925781 247.96875 614.007812 C 278.03125 634.316406 310.191406 651.769531 343.5625 665.894531 C 377.609375 680.289062 413.226562 691.355469 449.433594 698.777344 C 486.46875 706.355469 524.496094 710.203125 562.453125 710.203125 C 600.4375 710.203125 638.464844 706.355469 675.476562 698.777344 C 711.703125 691.355469 747.324219 680.3125 781.347656 665.894531 C 814.71875 651.769531 846.878906 634.316406 876.941406 614.007812 C 906.648438 593.925781 934.601562 570.871094 959.96875 545.503906 C 985.355469 520.113281 1008.382812 492.179688 1028.464844 462.46875 C 1048.769531 432.398438 1066.242188 400.238281 1080.34375 366.863281 C 1094.734375 332.8125 1105.796875 297.1875 1113.21875 260.976562 C 1120.84375 223.957031 1124.6875 185.925781 1124.6875 147.9375 Z M 1124.6875 147.9375 " fill-opacity="0.1" fill-rule="nonzero"/></g><path fill="#f4a222" d="M 1039.84375 147.9375 C 1039.84375 115.664062 1036.582031 83.347656 1030.152344 51.902344 C 1026.550781 34.339844 1021.941406 16.953125 1016.386719 -0.140625 L 108.613281 -0.140625 C 103.035156 16.929688 98.449219 34.339844 94.847656 51.90625 C 88.417969 83.347656 85.15625 115.664062 85.15625 147.9375 C 85.15625 180.210938 88.417969 212.53125 94.847656 243.972656 C 101.144531 274.695312 110.523438 304.921875 122.734375 333.824219 C 134.71875 362.136719 149.539062 389.464844 166.785156 414.992188 C 183.832031 440.226562 203.417969 463.953125 224.960938 485.519531 C 246.503906 507.089844 270.25 526.65625 295.484375 543.726562 C 321.007812 560.976562 348.304688 575.796875 376.640625 587.761719 C 405.515625 599.976562 435.738281 609.375 466.476562 615.652344 C 497.914062 622.082031 530.230469 625.34375 562.5 625.34375 C 594.769531 625.34375 627.085938 622.082031 658.523438 615.652344 C 689.261719 609.355469 719.484375 599.976562 748.359375 587.761719 C 776.671875 575.777344 803.972656 560.953125 829.515625 543.726562 C 854.746094 526.679688 878.496094 507.089844 900.039062 485.542969 C 921.601562 463.976562 941.167969 440.246094 958.234375 415.011719 C 975.484375 389.488281 990.304688 362.183594 1002.265625 333.84375 C 1014.476562 304.96875 1023.875 274.742188 1030.152344 243.996094 C 1036.582031 212.53125 1039.84375 180.210938 1039.84375 147.9375 Z M 1039.84375 147.9375 " fill-opacity="0.15" fill-rule="nonzero"/><path fill="#f4a222" d="M 954.996094 147.9375 C 954.996094 121.355469 952.320312 94.769531 947.015625 68.90625 C 942.203125 45.335938 935.164062 22.148438 926.078125 -0.140625 L 198.875 -0.140625 C 189.792969 22.148438 182.753906 45.335938 177.941406 68.90625 C 172.65625 94.769531 169.957031 121.355469 169.957031 147.9375 C 169.957031 174.523438 172.632812 201.105469 177.941406 226.96875 C 183.113281 252.203125 190.804688 277.035156 200.855469 300.785156 C 210.703125 324.0625 222.871094 346.507812 237.058594 367.492188 C 251.09375 388.273438 267.195312 407.792969 284.9375 425.539062 C 302.679688 443.285156 322.199219 459.386719 342.953125 473.421875 C 363.933594 487.613281 386.378906 499.78125 409.652344 509.632812 C 433.375 519.660156 458.203125 527.375 483.457031 532.550781 C 509.316406 537.835938 535.898438 540.53125 562.476562 540.53125 C 589.058594 540.53125 615.636719 537.855469 641.5 532.550781 C 666.753906 527.375 691.554688 519.683594 715.304688 509.632812 C 738.578125 499.78125 761.019531 487.613281 782 473.421875 C 802.757812 459.386719 822.296875 443.285156 840.042969 425.539062 C 857.785156 407.792969 873.886719 388.273438 887.917969 367.492188 C 902.105469 346.507812 914.273438 324.0625 924.121094 300.785156 C 934.152344 277.058594 941.863281 252.226562 947.035156 226.96875 C 952.320312 201.105469 954.996094 174.523438 954.996094 147.9375 Z M 954.996094 147.9375 " fill-opacity="0.25" fill-rule="nonzero"/><path fill="#f4a222" d="M 870.152344 147.9375 C 870.152344 94.253906 856.410156 43.785156 832.261719 -0.140625 L 292.738281 -0.140625 C 268.585938 43.785156 254.847656 94.253906 254.847656 147.9375 C 254.847656 317.875 392.585938 455.632812 562.5 455.632812 C 732.414062 455.632812 870.152344 317.875 870.152344 147.9375 Z M 870.152344 147.9375 " fill-opacity="1" fill-rule="nonzero"/></svg>